Coordinates
version=1
nRows=14
nColumns=36
inDegrees=yes

Units are S.I. units (second, meters, Newtons, ...)
If the header above contains a line with 'inDegrees', this indicates whether rotational values are in degrees (yes) or radians (no).

endheader
time	pelvis_tilt	pelvis_list	pelvis_rotation	pelvis_tx	pelvis_ty	pelvis_tz	hip_flexion_r	hip_adduction_r	hip_rotation_r	knee_angle_r	knee_angle_r_beta	ankle_angle_r	subtalar_angle_r	mtp_angle_r	hip_flexion_l	hip_adduction_l	hip_rotation_l	knee_angle_l	knee_angle_l_beta	ankle_angle_l	subtalar_angle_l	mtp_angle_l	lumbar_extension	lumbar_bending	lumbar_rotation	arm_flex_r	arm_add_r	arm_rot_r	elbow_flex_r	pro_sup_r	arm_flex_l	arm_add_l	arm_rot_l	elbow_flex_l	pro_sup_l
      2.82083330	    -17.37289944	      0.35751387	      0.38629585	      0.17069172	      0.76878227	     -0.06078811	     57.32841465	     -3.86407272	      5.32586020	     71.75589377	      1.25237660	     22.51996650	    -27.01045131	     -7.49999987	     55.27001678	      4.04386505	     13.06462125	     74.50527871	      1.30036242	     27.29859180	    -21.99449934	     -7.49999987	    -19.27525749	      3.14531955	      4.79309000	     60.26426931	    -33.47247233	      8.63155456	    104.30382641	     86.76841457	      5.22792842	    -31.38533137	   -111.18994237	      7.48304943	     37.68407471
      2.82500000	    -16.81546708	      0.42596910	      0.51896783	      0.17005218	      0.77216207	     -0.06067431	     56.21057236	     -4.04647306	      5.30888334	     71.25214145	      1.24358447	     22.59523892	    -27.18175317	     -7.49999987	     54.17646678	      3.97250766	     12.76775166	     73.93842788	      1.29046901	     27.78126777	    -21.31143569	     -7.49999987	    -19.07129349	      3.04297318	      4.89118790	     61.01083837	    -33.86918370	      8.77804537	    105.80967091	     87.45302835	      5.24243979	    -32.54308699	   -113.55799868	      6.73451553	     35.19772389
      2.82916670	    -16.40714158	      0.57871242	      0.81183767	      0.18267124	      0.77677810	     -0.06667284	     54.67518319	     -4.68964078	      5.44147741	     70.48813544	      1.23025005	     22.47447628	    -27.00865957	     -7.49999987	     52.79645653	      4.33639563	     12.55515720	     73.22539625	      1.27802426	     28.08910800	    -21.06665543	     -7.49999987	    -17.89807240	      3.37640797	      4.91637637	     60.00379418	    -34.08696499	      9.05899583	    106.27516110	     87.41585585	      4.53730015	    -32.47388829	   -113.68506369	      6.56988841	     35.15298188
      2.83333330	    -15.78242180	      0.71431223	      0.85134177	      0.18656533	      0.77769016	     -0.07129010	     53.21827700	     -5.21908134	      5.44862001	     69.92663076	      1.22044994	     22.86547236	    -26.70350974	     -7.49999987	     51.47500705	      4.62195047	     12.04077206	     72.97599905	      1.27367146	     28.87225741	    -20.77439439	     -7.49999987	    -17.64374409	      3.45917334	      5.42337280	     58.99294545	    -35.85325631	      8.20157540	    107.86794926	     81.78077788	      6.06288459	    -32.73421409	   -135.11360057	      9.92175341	     29.35017086
      2.83750000	    -15.61416634	      0.85405554	      0.91674031	      0.18670748	      0.78501735	     -0.07113957	     52.33843157	     -5.48953151	      5.67555761	     69.13503661	      1.20663402	     22.77295536	    -26.55213362	     -7.49999987	     50.40256755	      4.87640722	     11.95224618	     71.92401205	      1.25531082	     28.95390285	    -20.78911513	     -7.49999987	    -16.64857235	      3.75573949	      5.33622662	     58.80287232	    -36.20340970	      8.34987949	    108.06528128	     81.84289515	      5.30242097	    -32.74925888	   -135.30260250	     10.54711442	     29.49716486
      2.84166670	    -15.78480320	      0.92721501	      0.83110561	      0.19159436	      0.78827417	     -0.07574797	     51.75294089	     -5.80187864	      5.74220974	     68.23465218	      1.19091934	     22.24553850	    -26.77945866	     -7.49999987	     49.75742377	      5.18668896	     11.71586698	     71.06777690	      1.24036670	     28.81535707	    -21.15519574	     -7.49999987	    -15.75017258	      4.03090713	      5.22222823	     59.68530580	    -36.62811393	      8.72105157	    109.46755943	     81.40888108	      4.74274739	    -32.26987940	   -135.63805354	     11.63555600	     30.42528033
      2.84583330	    -15.85166830	      0.93200174	      0.43089303	      0.19686459	      0.79226171	     -0.07148412	     51.10698331	     -5.57468881	      5.84155687	     67.30548108	      1.17470225	     22.03860622	    -26.61269444	     -7.49999987	     48.80492308	      4.98933313	     11.59174685	     69.95041331	      1.22086503	     28.77284170	    -21.32913468	     -7.49999987	    -14.88871833	      4.16767354	      5.37653027	     59.79889642	    -36.51355190	      9.08833800	    110.22281538	     81.47083924	      3.80587431	    -32.41385551	   -136.14738361	     11.81878043	     30.47350241
      2.85000000	    -15.86530093	      0.93606343	      0.42998548	      0.19752097	      0.79516837	     -0.07187708	     50.47155701	     -5.53082715	      5.77746052	     66.45105577	      1.15978971	     21.77488892	    -26.82681796	     -7.49999987	     47.99762458	      4.82473291	     11.47313476	     68.86078774	      1.20184747	     28.23416271	    -21.73189981	     -7.49999987	    -14.06250804	      4.21049553	      5.31488078	     61.34998963	    -36.47496796	      9.66086929	    110.71114455	     81.26277992	      8.08919521	    -35.21935771	   -178.19659224	     19.85555492	     61.43743683
      2.85416670	    -15.60867900	      0.79066995	      0.49531711	      0.19869112	      0.80525478	     -0.07243128	     49.26108920	     -5.42476617	      5.50785426	     64.93372251	      1.13330725	     21.69241086	    -26.24551346	     -7.49999987	     46.95370508	      4.50683507	     11.45988787	     67.64206467	      1.18057674	     27.73377814	    -21.68304530	     -7.49999987	    -13.69235207	      4.50779479	      5.86826504	     62.09172074	    -37.36248087	     10.30472371	    111.45408879	     80.12339127	      9.25631672	    -35.31939449	   -178.36102332	     21.54544817	     61.02005193
      2.85833330	    -15.62832669	      0.83871498	      0.77986630	      0.19916701	      0.80481344	     -0.07235384	     48.67793780	     -5.51999910	      5.41035088	     63.94713304	      1.11608802	     20.96671904	    -27.11134878	     -7.49999987	     46.41279644	      4.34883216	     11.29786229	     66.49130423	      1.16049218	     27.32501749	    -21.85605070	     -7.49999987	    -13.21498277	      4.57835937	      5.21576959	     63.62764134	    -37.22951847	     11.70932732	    111.28688956	     81.11101825	      8.89757403	    -37.32705220	   -187.35520926	     22.24739055	     58.99983478
      2.86250000	    -15.86972332	      0.86300681	      1.15532670	      0.20058775	      0.80865030	     -0.07289227	     48.35590691	     -5.83768422	      5.14376804	     63.06177482	      1.10063560	     20.43572171	    -27.30705994	     -7.49999987	     46.33408732	      4.49924520	     11.34363457	     65.64613225	      1.14574115	     26.84628196	    -22.20113398	     -7.49999987	    -12.23024417	      4.89591306	      4.92113312	     64.49983221	    -37.85616239	     12.61479196	    111.67947209	     79.85724908	      9.75726178	    -37.39720960	   -184.13412258	     23.74476875	     59.01430828
      2.86666670	    -15.98490793	      0.86811536	      1.24144322	      0.20106900	      0.81166937	     -0.07253404	     48.04706711	     -5.82569779	      5.16110243	     62.19922828	      1.08558133	     19.75500948	    -27.82263450	     -7.49999987	     46.21638837	      4.29760920	     10.96497592	     64.92175286	      1.13309834	     26.82285044	    -21.67442125	     -7.49999987	    -11.27335677	      5.47381342	      4.65018150	     64.74112997	    -38.51168884	     12.50514926	    111.75058958	     78.87171804	     10.86183537	    -37.88548600	   -180.66944819	     24.21395901	     59.24376923
      2.87083330	    -16.14413909	      1.02574468	      1.39241123	      0.20244431	      0.81900304	     -0.07257414	     47.64677519	     -6.06654755	      5.08869457	     61.04742029	      1.06547848	     18.88091812	    -28.23074616	     -7.49999987	     45.70758162	      4.43352318	     10.89969193	     63.47492429	      1.10784642	     26.22824033	    -21.75012099	     -7.49999987	    -10.24056766	      6.00083943	      4.53012361	     66.49997349	    -37.82171969	     13.85273269	    112.03785878	     79.08178366	     11.31824232	    -38.32429409	   -178.32325950	     23.16152382	     59.79758704
      2.87500000	    -16.31511195	      0.90859860	      1.59029376	      0.20772793	      0.82194648	     -0.06831342	     46.98352185	     -6.02183466	      4.58730499	     59.93269426	      1.04602284	     18.63614180	    -27.81834259	     -7.49999987	     45.10057679	      4.19067043	     11.14597259	     62.08016793	      1.08350333	     25.93012675	    -21.17161942	     -7.49999987	     -9.31500666	      7.03202590	      3.85674295	     68.79216774	    -36.40261908	     15.95495020	    112.41631859	     80.59716687	     11.39506969	    -38.07720653	   -163.32954650	     36.55148788	     63.16821474
